<?xml version="1.0" encoding="UTF-8" standalone="no" ?>
<!DOCTYPE svg PUBLIC "-//W3C//DTD SVG 1.1//EN" "http://www.w3.org/Graphics/SVG/1.1/DTD/svg11.dtd">
<svg xmlns="http://www.w3.org/2000/svg" xmlns:xlink="http://www.w3.org/1999/xlink" version="1.1" width="1080" height="1080" viewBox="0 0 1080 1080" xml:space="preserve">
<desc>Created with Fabric.js 5.2.4</desc>
<defs>
</defs>
<rect x="0" y="0" width="100%" height="100%" fill="transparent"></rect>
<g transform="matrix(1 0 0 1 540 540)" id="0641b4dd-909b-4467-bbc6-6f55b5b9e53b"  >
<rect style="stroke: none; stroke-width: 1; stroke-dasharray: none; stroke-linecap: butt; stroke-dashoffset: 0; stroke-linejoin: miter; stroke-miterlimit: 4; fill: rgb(255,255,255); fill-rule: nonzero; opacity: 1; visibility: hidden;" vector-effect="non-scaling-stroke"  x="-540" y="-540" rx="0" ry="0" width="1080" height="1080" />
</g>
<g transform="matrix(1 0 0 1 540 540)" id="1a6ed73d-8fda-4b43-a085-0002a5b65108"  >
</g>
<g transform="matrix(NaN NaN NaN NaN 0 0)"  >
<g style=""   >
</g>
</g>
<g transform="matrix(NaN NaN NaN NaN 0 0)"  >
<g style=""   >
</g>
</g>
<g transform="matrix(NaN NaN NaN NaN 0 0)"  >
<g style=""   >
</g>
</g>
<g transform="matrix(NaN NaN NaN NaN 0 0)"  >
<g style=""   >
</g>
</g>
<g transform="matrix(NaN NaN NaN NaN 0 0)"  >
<g style=""   >
</g>
</g>
<g transform="matrix(NaN NaN NaN NaN 0 0)"  >
<g style=""   >
</g>
</g>
<g transform="matrix(1 0 0 1 540 540)" id="099de5a0-65f5-4915-a233-44c3656c2ccd"  >
<path style="stroke: rgb(0,0,0); stroke-width: 0; stroke-dasharray: none; stroke-linecap: butt; stroke-dashoffset: 0; stroke-linejoin: miter; stroke-miterlimit: 4; fill: rgb(136,136,136); fill-rule: nonzero; opacity: 1;" vector-effect="non-scaling-stroke"  transform=" translate(-499.78, -499.82)" d="M 935.3 114 C 931.3 88.8 918.9 77.3 893.7 75.5 C 882.6 74.6 871.6 74.2 860.5 74.2 C 618.6 73.8 377.2 73.8 135.39999999999998 74.2 C 122.1 74.2 108.9 75.5 96 77.7 C 77.9 80.8 68.6 93.6 65 110.9 C 63.7 120.6 62.3 130.4 62.3 140.1 L 62.3 631.3 C 62.3 638.8 62.7 646.8 63.6 654.3 C 68.5 683 79.5 693.7 108.7 694.5 C 164 695.4 219.2 695.4 274.9 695.8 L 292.6 695.8 L 292.6 898.7 C 292.6 908.4 292.2 919 303.2 923.9 C 314.3 929.2 321.3 922.1 328.8 915.1 C 406.2 844.4 483.1 773.6 560.9 703.3 C 565.8 698.9 574.2 696.2 581.2 696.2 C 676.7 695.3 772.2 695.8 867.7 695.3 C 880.5 695.3 893.8 694 906.6 691.8 C 923 688.7 931.8 677.7 934.5 661.7 C 935.8 652 937.2 641.8 937.2 631.6 L 937.2 139.2 C 937.5 130.8 936.6 122.4 935.3 114 z M 201.29999999999995 351.4 L 499.3 351.4 L 499.3 418.6 L 201.3 418.6 L 201.3 351.4 z M 683.7 556.6 L 201.3 556.6 L 201.3 489.4 L 683.7 489.4 L 683.7 556.6 z M 798.7 280.2 L 201.29999999999995 280.2 L 201.29999999999995 213.4 L 798.6 213.4 L 798.6 280.2 z" stroke-linecap="round" />
</g>
<g transform="matrix(NaN NaN NaN NaN 0 0)"  >
<g style=""   >
</g>
</g>
</svg>