<?xml version="1.0" encoding="UTF-8" standalone="no" ?>
<!DOCTYPE svg PUBLIC "-//W3C//DTD SVG 1.1//EN" "http://www.w3.org/Graphics/SVG/1.1/DTD/svg11.dtd">
<svg xmlns="http://www.w3.org/2000/svg" xmlns:xlink="http://www.w3.org/1999/xlink" version="1.1" width="1080" height="1080" viewBox="0 0 1080 1080" xml:space="preserve">
<desc>Created with Fabric.js 5.2.4</desc>
<defs>
</defs>
<g transform="matrix(1 0 0 1 540 540)" id="62890b30-1203-4dd5-a65c-e815588e8350"  >
<rect style="stroke: none; stroke-width: 1; stroke-dasharray: none; stroke-linecap: butt; stroke-dashoffset: 0; stroke-linejoin: miter; stroke-miterlimit: 4; fill: rgb(255,255,255); fill-rule: nonzero; opacity: 1; visibility: hidden;" vector-effect="non-scaling-stroke"  x="-540" y="-540" rx="0" ry="0" width="1080" height="1080" />
</g>
<g transform="matrix(1 0 0 1 540 540)" id="047d0b0c-0cef-496a-b59c-b0e226bc5343"  >
</g>
<g transform="matrix(1 0 0 1 540 540)"  >
<g style="" vector-effect="non-scaling-stroke"   >
		<g transform="matrix(1 0 0 1 0 0)"  >
<rect style="stroke: none; stroke-width: 1; stroke-dasharray: none; stroke-linecap: butt; stroke-dashoffset: 0; stroke-linejoin: miter; stroke-miterlimit: 4; fill: rgb(92,142,230); fill-rule: nonzero; opacity: 1; visibility: hidden;" vector-effect="non-scaling-stroke"  x="-540" y="-540" rx="0" ry="0" width="1080" height="1080" />
</g>
		<g transform="matrix(1 0 0 1 0 0)"  >
<path style="stroke: rgb(0,0,0); stroke-width: 0; stroke-dasharray: none; stroke-linecap: butt; stroke-dashoffset: 0; stroke-linejoin: miter; stroke-miterlimit: 4; fill: rgb(92,142,230); fill-rule: nonzero; opacity: 1;" vector-effect="non-scaling-stroke"  transform=" translate(-499.97, -499.81)" d="M 497.1 263.7 C 635.1 265.9 753.3 306.3 851.3 391.7 C 886.1 422 913.4 457.4 936.6 495.5 C 938.1 498 937.6 502.8 935.9 505.4 C 858.3 631.1 740.1 706 583.9 729.1 C 429.7 751.9 291 717.5 170.7 626.5 C 126 592.7 91.4 551.1 63.599999999999994 504.8 C 62 502.2 62.1 497.5 63.7 494.9 C 141.1 369.2 259.5 295.8 415.4 270.5 C 425 268.9 434.7 267.5 444.5 266.7 C 462.9 265.4 481.3 264.6 497.1 263.7 z M 585.2 634.2 C 678.5 615.7 755.7 574.4 814.1 505.6 C 818.4 500.5 816.4 497.4 812.9 493.2 C 777.8 451.5 734 419.3 682.4 395.9 C 651.6 382 619.4 371.6 582.2 365 C 639.1 397.9 669.7 441.8 669.5 500.4 C 669.4 558.7 638.6 602.4 585.2 634.2 z M 414.8 634.2 C 361.4 602.4 330.6 558.7 330.4 500.2 C 330.3 441.6 361 397.7 414.4 365.4 C 394.2 370 374.2 374.7 355 381.3 C 287.4 404.2 231.1 441.1 187.1 493.1 C 182.5 498.5 182.3 502.1 187.3 507.1 C 195.6 515.4 202.9 524.6 211.4 532.8 C 267 586.2 335.5 618.9 414.8 634.2 z M 440.6 475.6 C 463 475.5 480.9 459.5 481 439.5 C 481.1 419.4 462.4 402.2 440.3 402.1 C 418.2 401.9 399.4 419.1 399.5 439.3 C 399.6 459.9 417.5 475.7 440.6 475.6 z" stroke-linecap="round" />
</g>
</g>
</g>
<g transform="matrix(NaN NaN NaN NaN 0 0)"  >
<g style=""   >
</g>
</g>
<g transform="matrix(NaN NaN NaN NaN 0 0)"  >
<g style=""   >
</g>
</g>
</svg>