<?xml version="1.0" encoding="UTF-8" standalone="no" ?>
<!DOCTYPE svg PUBLIC "-//W3C//DTD SVG 1.1//EN" "http://www.w3.org/Graphics/SVG/1.1/DTD/svg11.dtd">
<svg xmlns="http://www.w3.org/2000/svg" xmlns:xlink="http://www.w3.org/1999/xlink" version="1.1" width="1080" height="1080" viewBox="0 0 1080 1080" xml:space="preserve">
<desc>Created with Fabric.js 5.2.4</desc>
<defs>
</defs>
<rect x="0" y="0" width="100%" height="100%" fill="transparent"></rect>
<g transform="matrix(1 0 0 1 540 540)" id="434f588c-3472-4f2d-9574-bbd903fc9cb4"  >
<rect style="stroke: none; stroke-width: 1; stroke-dasharray: none; stroke-linecap: butt; stroke-dashoffset: 0; stroke-linejoin: miter; stroke-miterlimit: 4; fill: rgb(255,255,255); fill-rule: nonzero; opacity: 1; visibility: hidden;" vector-effect="non-scaling-stroke"  x="-540" y="-540" rx="0" ry="0" width="1080" height="1080" />
</g>
<g transform="matrix(1 0 0 1 540 540)" id="b47d6fc8-d358-4040-8d87-02e1eaa38849"  >
</g>
<g transform="matrix(NaN NaN NaN NaN 0 0)"  >
<g style=""   >
</g>
</g>
<g transform="matrix(NaN NaN NaN NaN 0 0)"  >
<g style=""   >
</g>
</g>
<g transform="matrix(1 0 0 1 540 540)" id="2342c842-59cc-442e-9854-b4a9341ce3bc"  >
<path style="stroke: rgb(0,0,0); stroke-width: 0; stroke-dasharray: none; stroke-linecap: butt; stroke-dashoffset: 0; stroke-linejoin: miter; stroke-miterlimit: 4; fill: rgb(255,84,84); fill-rule: nonzero; opacity: 1;" vector-effect="non-scaling-stroke"  transform=" translate(-500.03, -500.02)" d="M 928.9 459.9 C 921.6 415.5 886.9 386.1 841.1 385.4 C 780.3 384.5 719.4 385 658.5 385 L 571.9 385 C 574.5 376.3 577.1 368.8 579 361.3 C 591.2 315 605.4 269.1 598.9 220.2 C 594.3 184.8 586 150.6 565.8 120.5 C 539.6 81 503.1 59.9 454.5 62.8 C 420.7 64.9 396.7 83.1 391 116.2 C 386.6 141.3 385.9 167.4 387 192.9 C 388.4 227.6 382.5 260.4 364.4 289.5 C 334.4 337.7 302.6 384.9 270.9 432 C 262.9 443.9 259.1 455.7 259.1 469.9 C 259.4 607.7 259.4 745.6 259.1 883.4 C 259.1 896.6 263.8 906.9 273 915.8 C 290 932 311 936.1 333.4 936.1 C 453.7 936.1 574 936.4 694.3 935.7 C 714.1 935.6 734.3 932.6 753.5 928 C 784.1 920.7 810.9 905.5 828.5 878.2 C 844.8 852.8 842.8 826.1 830.9 798.8 C 853.7 787.4 870.9 771.2 876.7 745.4 C 882.5 720.2 878.6 696.6 864.3 675.1 C 914.8 644.4 921.3 591.5 891.2 551.1 C 925 529.5 935 497.5 928.9 459.9 z M 183.60000000000002 445 L 162.3 445 L 162.3 444.9 L 129 444.9 L 129 445 L 107.7 445 C 85.1 445 69.7 461.3 69.6 485 C 69.4 553.7 69.5 622.4 69.5 691.1 L 69.5 891.8 C 69.6 923.3 83.8 937.4 115.4 937.4 L 129 937.4 L 129 937.5 L 145.6 937.4 C 145.6 937.4 156.7 937.5 162.2 937.5 L 162.2 937.4 L 175.8 937.4 C 207.5 937.4 221.7 923.2 221.7 891.8 L 221.7 691.1 C 221.7 622.4 221.8 553.7 221.6 485 C 221.8 461.3 206.4 445 183.6 445 z M 145.7 551.1 C 131.4 551.1 119.8 539.5 119.8 525.2 C 119.8 510.9 131.4 499.4 145.7 499.4 C 160 499.4 171.6 510.9 171.6 525.2 C 171.6 539.5000000000001 160 551.1 145.7 551.1 z" stroke-linecap="round" />
</g>
<g transform="matrix(NaN NaN NaN NaN 0 0)"  >
<g style=""   >
</g>
</g>
<g transform="matrix(NaN NaN NaN NaN 0 0)"  >
<g style=""   >
</g>
</g>
<g transform="matrix(NaN NaN NaN NaN 0 0)"  >
<g style=""   >
</g>
</g>
<g transform="matrix(NaN NaN NaN NaN 0 0)"  >
<g style=""   >
</g>
</g>
</svg>