<?xml version="1.0" encoding="UTF-8" standalone="no" ?>
<!DOCTYPE svg PUBLIC "-//W3C//DTD SVG 1.1//EN" "http://www.w3.org/Graphics/SVG/1.1/DTD/svg11.dtd">
<svg xmlns="http://www.w3.org/2000/svg" xmlns:xlink="http://www.w3.org/1999/xlink" version="1.1" width="1080" height="1080" viewBox="0 0 1080 1080" xml:space="preserve">
<desc>Created with Fabric.js 5.2.4</desc>
<defs>
</defs>
<rect x="0" y="0" width="100%" height="100%" fill="transparent"></rect>
<g transform="matrix(1 0 0 1 540 540)" id="a7252b85-e156-4827-8040-5bb77992d9e7"  >
<rect style="stroke: none; stroke-width: 1; stroke-dasharray: none; stroke-linecap: butt; stroke-dashoffset: 0; stroke-linejoin: miter; stroke-miterlimit: 4; fill: rgb(255,255,255); fill-rule: nonzero; opacity: 1; visibility: hidden;" vector-effect="non-scaling-stroke"  x="-540" y="-540" rx="0" ry="0" width="1080" height="1080" />
</g>
<g transform="matrix(1 0 0 1 540 540)" id="185d3584-a7a5-4cff-98c7-dc64d086460b"  >
</g>
<g transform="matrix(NaN NaN NaN NaN 0 0)"  >
<g style=""   >
</g>
</g>
<g transform="matrix(NaN NaN NaN NaN 0 0)"  >
<g style=""   >
</g>
</g>
<g transform="matrix(NaN NaN NaN NaN 0 0)"  >
<g style=""   >
</g>
</g>
<g transform="matrix(NaN NaN NaN NaN 0 0)"  >
<g style=""   >
</g>
</g>
<g transform="matrix(1 0 0 1 540 540)" id="762f250e-026e-4f1f-a543-dda2664c8498"  >
<path style="stroke: rgb(0,0,0); stroke-width: 0; stroke-dasharray: none; stroke-linecap: butt; stroke-dashoffset: 0; stroke-linejoin: miter; stroke-miterlimit: 4; fill: rgb(92,142,230); fill-rule: nonzero; opacity: 1;" vector-effect="non-scaling-stroke"  transform=" translate(-499.99, -500)" d="M 660.5 510.4 L 560.2 510.4 C 528.2 510.4 501.9 484.1 501.9 452 L 501.9 340.5 C 501.9 308.4 528.2 282.2 560.2 282.2 L 660.5 282.2 L 660.5 189.2 C 571.2 160.3 462.6 190.3 402.6 305.4 C 288.1 85.80000000000001 -3.1999999999999886 175.8 0 393.6 C 3.5 631 295.8 672.2 402.5 829 L 402.5 829 L 402.6 829 C 459.9 744.8 570.6 693.9 661.5 628.1 C 660.9 624.9 660.5 621.7 660.5 618.3 L 660.5 510.4 z M 970.8 331.2 L 837.6 331.2 L 837.6 200.2 C 837.6 184.1 824.4 171 808.4 171 L 736.6 171 C 720.6 171 707.4 184.1 707.4 200.2 L 707.4 331.2 L 577.1 331.2 C 561 331.2 547.9 344.4 547.9 360.4 L 547.9 432.2 C 547.9 448.2 561 461.4 577.1 461.4 L 707.4 461.4 L 707.3 593.9 C 707.3 609.9 720.5 623 736.5 623 L 808.4 623 C 824.5 623 837.6 609.9 837.6 593.9 L 837.6 461.4 L 970.8 461.4 C 986.9 461.4 1000 448.2 1000 432.2 L 1000 360.4 C 1000 344.4 986.9 331.2 970.8 331.2 z" stroke-linecap="round" />
</g>
<g transform="matrix(NaN NaN NaN NaN 0 0)"  >
<g style=""   >
</g>
</g>
<g transform="matrix(NaN NaN NaN NaN 0 0)"  >
<g style=""   >
</g>
</g>
</svg>