<?xml version="1.0" encoding="UTF-8" standalone="no" ?>
<!DOCTYPE svg PUBLIC "-//W3C//DTD SVG 1.1//EN" "http://www.w3.org/Graphics/SVG/1.1/DTD/svg11.dtd">
<svg xmlns="http://www.w3.org/2000/svg" xmlns:xlink="http://www.w3.org/1999/xlink" version="1.1" width="1080" height="1080" viewBox="0 0 1080 1080" xml:space="preserve">
<desc>Created with Fabric.js 5.2.4</desc>
<defs>
</defs>
<g transform="matrix(1 0 0 1 540 540)" id="21f583bf-6429-40aa-881b-faa5d1a6f765"  >
<rect style="stroke: none; stroke-width: 1; stroke-dasharray: none; stroke-linecap: butt; stroke-dashoffset: 0; stroke-linejoin: miter; stroke-miterlimit: 4; fill: rgb(255,255,255); fill-rule: nonzero; opacity: 1; visibility: hidden;" vector-effect="non-scaling-stroke"  x="-540" y="-540" rx="0" ry="0" width="1080" height="1080" />
</g>
<g transform="matrix(1 0 0 1 540 540)" id="10aa3f25-4422-47ea-bddc-834b788514c6"  >
</g>
<g transform="matrix(1 0 0 1 540 540)" id="170b93fd-6ea4-4c01-9fef-ead9ac44b5d7"  >
<path style="stroke: rgb(0,0,0); stroke-width: 0; stroke-dasharray: none; stroke-linecap: butt; stroke-dashoffset: 0; stroke-linejoin: miter; stroke-miterlimit: 4; fill: rgb(255,84,84); fill-rule: nonzero; opacity: 1;" vector-effect="non-scaling-stroke"  transform=" translate(-499.79, -499.95)" d="M 509 799.8 L 491.9 797.5 C 489 796.9 486.7 794.8 486.7 792.3 L 486.7 668.2 L 470.3 666.1 L 470.3 764.4 C 470.3 766.1 469.5 767.5 468 768.5 C 466.7 769.3 464.9 769.8 463.2 769.5 L 443.2 766.6 C 440.1 766.2 438 764.1 438 761.6 L 438 410.8 L 328.3 520.5 C 320.1 528.7 306 529.8 296.7 523.1 L 238.8 481.4 C 229.4 474.7 228.5 462.7 236.6 454.5 L 485 206.1 C 493.2 197.9 506.3 197.9 514.5 206.1 L 763 454.6 C 771.2 462.8 770.1 474.6 760.6 481.2 L 701.7 522 C 692.3 528.5 678 527.3 669.9 519.2 L 561.5 410.8 L 561.5 742.4 C 561.5 743.8 560.7 745.3 559.2 746.4 C 557.9 747.4 556.1 747.8 554.2 747.4 L 537.9 745.1 C 535 744.7 532.7 742.4 532.7 739.9 L 532.7 646.4 L 516.3 644.3 L 516.3 794.8 C 516.3 796.2 515.5 797.7 514 798.8 C 512.8 799.8 510.9 800.2 509 799.8 z" stroke-linecap="round" />
</g>
<g transform="matrix(NaN NaN NaN NaN 0 0)"  >
<g style=""   >
</g>
</g>
<g transform="matrix(NaN NaN NaN NaN 0 0)"  >
<g style=""   >
</g>
</g>
</svg>